<?xml version="1.0" standalone="no"?>
<!DOCTYPE svg PUBLIC "-//W3C//DTD SVG 20010904//EN"
 "http://www.w3.org/TR/2001/REC-SVG-20010904/DTD/svg10.dtd">
<svg version="1.0" xmlns="http://www.w3.org/2000/svg"
 width="500.000000pt" height="500.000000pt" viewBox="0 0 500.000000 500.000000"
 preserveAspectRatio="xMidYMid meet">
<metadata>
Created by potrace 1.14, written by Peter Selinger 2001-2017
</metadata>
<g transform="translate(0.000000,500.000000) scale(0.100000,-0.100000)"
fill="#000000" stroke="none">
<path d="M1105 4416 c-60 -15 -155 -56 -155 -68 0 -5 -4 -6 -10 -3 -5 3 -10 2
-10 -2 0 -5 -13 -16 -29 -26 -36 -21 -108 -91 -142 -137 -31 -42 -72 -120 -63
-120 4 0 1 -6 -5 -13 -6 -8 -8 -17 -4 -20 3 -4 2 -7 -4 -7 -5 0 -10 -6 -11
-12 -8 -103 -11 -130 -15 -135 -3 -3 -2 -16 3 -29 5 -13 6 -26 0 -29 -5 -3 -5
-18 0 -34 4 -16 6 -32 2 -35 -7 -8 -7 -69 1 -89 4 -10 3 -17 -1 -17 -6 0 -8
-78 -2 -105 1 -5 2 -14 1 -20 -5 -40 -1 -1277 4 -1285 3 -5 3 -10 -2 -10 -6 0
-9 -360 -4 -600 1 -25 1 -52 1 -60 -1 -33 11 -114 20 -130 5 -10 7 -20 4 -23
-7 -7 51 -121 84 -167 33 -45 110 -120 148 -143 102 -64 167 -85 275 -91 31
-2 61 -6 67 -10 6 -3 13 -2 16 3 4 6 18 6 35 1 16 -4 32 -6 35 -2 8 8 66 8 66
0 0 -4 14 -3 30 2 18 5 30 5 30 0 0 -6 10 -6 24 0 13 5 26 7 29 4 7 -7 187
-10 187 -4 0 3 29 3 64 0 36 -3 76 -2 90 1 14 4 28 3 31 -1 3 -5 16 -5 29 0
12 4 29 5 36 0 7 -4 19 -6 25 -3 14 5 66 -41 296 -268 92 -90 174 -169 182
-176 21 -17 66 13 167 113 287 284 329 322 361 330 46 11 49 11 87 3 17 -4 32
-4 32 0 0 8 42 7 56 -1 5 -3 18 -2 29 2 11 4 30 4 42 -1 13 -5 25 -4 28 2 4 5
11 7 16 3 14 -8 119 -11 119 -3 0 4 16 3 34 -1 19 -4 37 -6 40 -3 7 8 116 9
116 1 0 -4 13 -3 30 2 17 5 30 5 30 0 0 -5 13 -5 30 0 18 5 32 5 36 -1 3 -5
10 -7 15 -3 6 3 34 8 62 10 29 1 73 10 99 17 26 8 49 12 52 9 4 -3 6 0 6 6 0
7 6 12 13 12 17 0 90 40 99 54 4 6 8 8 8 4 0 -15 69 49 110 101 14 17 30 37
35 44 19 23 56 97 49 97 -4 0 1 9 11 20 10 11 15 20 12 20 -4 0 -2 11 3 24 17
47 23 113 24 306 1 107 6 201 10 209 6 9 5 12 0 8 -7 -4 -10 347 -11 956 0
529 -3 989 -7 1022 -9 73 -13 99 -16 103 -1 1 -4 7 -5 12 -1 6 -3 11 -4 13 -2
1 -4 11 -6 23 -7 37 -80 154 -96 154 -5 0 -9 5 -9 10 0 20 -147 135 -182 142
-7 2 -15 5 -18 8 -3 3 -33 15 -68 27 l-63 21 -1342 0 c-1005 0 -1355 -3 -1392
-12z m2075 -469 c0 -5 4 -5 10 -2 13 8 500 8 544 0 19 -4 40 -13 47 -21 6 -8
17 -14 24 -14 11 0 34 -38 42 -70 2 -8 4 -517 4 -1131 1 -1021 0 -1119 -15
-1148 -20 -38 -52 -72 -60 -63 -3 3 -6 0 -6 -7 0 -7 -4 -9 -10 -6 -5 3 -10 3
-10 -2 0 -11 -121 -10 -139 1 -9 6 -12 5 -8 -1 4 -5 -17 -9 -53 -9 -32 1 -56
5 -53 10 4 5 0 6 -8 0 -21 -13 -429 -12 -429 1 0 7 -3 7 -8 0 -8 -12 -176 -14
-188 -3 -4 4 -12 4 -18 0 -18 -12 -390 -9 -398 3 -5 7 -8 7 -8 -1 0 -12 -188
-13 -209 0 -9 6 -12 5 -8 0 3 -6 -22 -10 -64 -10 -38 0 -69 4 -69 9 0 4 -6 5
-12 0 -18 -11 -98 -10 -98 2 0 7 -3 7 -8 0 -4 -6 -25 -10 -47 -10 -22 0 -43 4
-47 10 -5 7 -8 6 -8 0 0 -14 -123 -14 -132 0 -5 7 -8 7 -8 0 0 -6 -72 -10
-199 -10 -132 0 -197 3 -193 10 4 6 1 6 -9 0 -16 -12 -58 -12 -106 0 -37 8
-85 64 -90 104 -2 14 -5 409 -6 878 -1 532 -5 849 -11 846 -5 -4 -6 -1 0 8 5
8 9 118 10 244 1 127 3 244 3 261 1 32 58 109 83 112 7 1 33 5 58 9 61 11
1910 10 1910 0z"/>
<path d="M1875 3035 c-27 -7 -51 -18 -53 -24 -2 -6 -8 -9 -12 -6 -9 6 -27 -7
-79 -55 -32 -29 -80 -102 -84 -127 -1 -10 -5 -23 -9 -28 -3 -6 -6 -46 -6 -91
0 -81 20 -151 58 -198 25 -31 94 -96 103 -96 4 0 25 -8 45 -18 80 -38 251 -22
315 29 15 11 27 18 27 14 0 -3 13 7 28 22 16 15 27 31 25 34 -1 4 4 13 13 20
18 15 46 78 39 89 -3 5 0 10 7 12 8 3 11 31 11 84 0 83 -4 109 -23 143 -6 12
-8 21 -5 21 2 0 -3 9 -13 20 -9 12 -17 24 -17 28 0 4 -16 21 -35 37 -19 17
-36 33 -38 38 -2 4 -10 7 -17 7 -7 0 -15 5 -17 10 -2 6 -13 12 -26 13 -12 0
-22 4 -22 8 0 21 -148 31 -215 14z"/>
<path d="M2859 3013 c-35 -18 -63 -35 -61 -39 2 -3 -7 -12 -20 -18 -22 -11
-102 -116 -94 -123 2 -3 -2 -16 -9 -29 -26 -50 -3 -254 28 -254 4 0 6 -4 3 -8
-7 -11 86 -112 102 -112 7 0 12 -3 12 -7 0 -11 68 -40 110 -49 36 -7 111 -7
145 0 39 8 110 39 122 53 6 8 14 14 17 14 3 0 17 11 30 24 14 14 23 25 21 25
-2 0 7 12 20 26 14 15 22 30 20 34 -3 5 -1 10 4 12 5 1 11 12 13 23 1 11 7 23
12 26 13 10 14 129 0 181 -6 26 -9 49 -6 52 3 3 0 6 -6 6 -7 0 -12 7 -12 15 0
8 -4 15 -10 15 -5 0 -10 6 -10 14 0 22 -78 94 -122 113 -21 9 -38 20 -38 23 0
3 -12 5 -27 5 -16 -1 -32 1 -38 4 -5 3 -40 6 -76 6 -54 0 -77 -6 -130 -32z"/>
</g>
</svg>
